<mxfile host="65bd71144e">
    <diagram id="4nTS6stVv6y9ojEMettr" name="Página-1">
        <mxGraphModel dx="585" dy="875" grid="1" gridSize="10" guides="1" tooltips="1" connect="1" arrows="1" fold="1" page="0" pageScale="1" pageWidth="827" pageHeight="1169" background="none" math="0" shadow="0">
            <root>
                <mxCell id="0"/>
                <mxCell id="1" parent="0"/>
                <mxCell id="13" value="" style="edgeStyle=none;shape=flexArrow;html=1;fillColor=#cdeb8b;strokeColor=#36393d;" edge="1" parent="1" target="14" source="3">
                    <mxGeometry relative="1" as="geometry">
                        <mxPoint x="389.79999999999995" y="-80" as="sourcePoint"/>
                    </mxGeometry>
                </mxCell>
                <mxCell id="8" value="" style="edgeStyle=none;html=1;shape=flexArrow;fillColor=#cdeb8b;strokeColor=#36393d;" edge="1" parent="1" source="2" target="3">
                    <mxGeometry relative="1" as="geometry"/>
                </mxCell>
                <mxCell id="2" value="&lt;span id=&quot;docs-internal-guid-b260d8b3-7fff-aaaa-7c53-4b31f939efba&quot;&gt;&lt;span style=&quot;font-size: 11.04pt ; font-family: &amp;#34;courier new&amp;#34; ; color: rgb(0 , 0 , 0) ; background-color: transparent ; vertical-align: baseline&quot;&gt;A = sc.textFile(“Caso A”)&lt;/span&gt;&lt;/span&gt;" style="rounded=1;whiteSpace=wrap;html=1;fillColor=#dae8fc;strokeColor=#6c8ebf;align=center;" parent="1" vertex="1">
                    <mxGeometry x="50" y="-220" width="450" height="40" as="geometry"/>
                </mxCell>
                <mxCell id="12" value="" style="edgeStyle=none;shape=flexArrow;html=1;fillColor=#cdeb8b;strokeColor=#36393d;" edge="1" parent="1" source="3" target="11">
                    <mxGeometry relative="1" as="geometry"/>
                </mxCell>
                <mxCell id="3" value="&lt;span id=&quot;docs-internal-guid-d82a0ac7-7fff-5aa1-37c9-a47197643dba&quot;&gt;&lt;span style=&quot;font-size: 11.04pt ; font-family: &amp;#34;courier new&amp;#34; ; color: rgb(0 , 0 , 0) ; background-color: transparent ; vertical-align: baseline&quot;&gt;B = A.map(fMap1)&lt;/span&gt;&lt;/span&gt;" style="rounded=1;whiteSpace=wrap;html=1;fillColor=#dae8fc;strokeColor=#6c8ebf;align=center;" vertex="1" parent="1">
                    <mxGeometry x="50" y="-120" width="450" height="40" as="geometry"/>
                </mxCell>
                <mxCell id="11" value="&lt;span id=&quot;docs-internal-guid-d1dd2f2e-7fff-6c05-dfa6-d8aac0f4a924&quot;&gt;&lt;span style=&quot;font-size: 11.04pt ; font-family: &amp;#34;courier new&amp;#34; ; color: rgb(0 , 0 , 0) ; background-color: transparent ; vertical-align: baseline&quot;&gt;C = B.filter(fFilter1)&lt;/span&gt;&lt;/span&gt;" style="rounded=1;whiteSpace=wrap;html=1;fillColor=#dae8fc;strokeColor=#6c8ebf;align=center;" vertex="1" parent="1">
                    <mxGeometry x="30" y="-21" width="230" height="40" as="geometry"/>
                </mxCell>
                <mxCell id="14" value="&lt;span id=&quot;docs-internal-guid-ffe1909e-7fff-e732-2b0d-fbfe8848517f&quot;&gt;&lt;span style=&quot;font-size: 11.04pt ; font-family: &amp;#34;courier new&amp;#34; ; color: rgb(0 , 0 , 0) ; background-color: transparent ; vertical-align: baseline&quot;&gt;final = B.reduce(fReduce1)&lt;/span&gt;&lt;/span&gt;" style="rounded=1;whiteSpace=wrap;html=1;fillColor=#dae8fc;strokeColor=#6c8ebf;align=center;" vertex="1" parent="1">
                    <mxGeometry x="268" y="-21" width="232" height="40" as="geometry"/>
                </mxCell>
            </root>
        </mxGraphModel>
    </diagram>
</mxfile>